<svg width="720" height="520" viewBox="0 0 720 520" fill="none" xmlns="http://www.w3.org/2000/svg">
  <rect width="720" height="520" rx="36" fill="#F0E7D8"/>
  <circle cx="570" cy="120" r="74" fill="#E0B88A"/>
  <circle cx="166" cy="404" r="92" fill="#D9C3A5"/>
  <rect x="150" y="130" width="420" height="250" rx="30" fill="#172033"/>
  <rect x="190" y="170" width="160" height="24" rx="12" fill="#F7F5F0"/>
  <rect x="190" y="212" width="250" height="18" rx="9" fill="#B8692F"/>
  <rect x="190" y="248" width="210" height="18" rx="9" fill="#F7F5F0"/>
  <rect x="190" y="284" width="285" height="18" rx="9" fill="#F7F5F0"/>
  <circle cx="500" cy="255" r="52" fill="#B8692F"/>
  <path d="M482 284V216L535 250L482 284Z" fill="#F7F5F0"/>
  <path d="M104 126C156 78 216 62 288 84" stroke="#172033" stroke-width="14" stroke-linecap="round"/>
  <path d="M616 398C560 436 500 450 430 428" stroke="#B8692F" stroke-width="14" stroke-linecap="round"/>
</svg>
