<svg width="300" height="300" viewBox="0 0 300 300" xmlns="http://www.w3.org/2000/svg">
  <rect width="300" height="300" rx="24" fill="#F7F5F0"/>
  <rect x="34" y="34" width="72" height="72" rx="8" fill="#172033"/>
  <rect x="50" y="50" width="40" height="40" rx="5" fill="#F7F5F0"/>
  <rect x="62" y="62" width="16" height="16" fill="#172033"/>

  <rect x="194" y="34" width="72" height="72" rx="8" fill="#172033"/>
  <rect x="210" y="50" width="40" height="40" rx="5" fill="#F7F5F0"/>
  <rect x="222" y="62" width="16" height="16" fill="#172033"/>

  <rect x="34" y="194" width="72" height="72" rx="8" fill="#172033"/>
  <rect x="50" y="210" width="40" height="40" rx="5" fill="#F7F5F0"/>
  <rect x="62" y="222" width="16" height="16" fill="#172033"/>

  <rect x="130" y="42" width="18" height="18" fill="#172033"/>
  <rect x="154" y="42" width="18" height="18" fill="#B8692F"/>
  <rect x="130" y="72" width="42" height="18" fill="#172033"/>

  <rect x="122" y="122" width="18" height="18" fill="#172033"/>
  <rect x="146" y="122" width="18" height="18" fill="#B8692F"/>
  <rect x="170" y="122" width="42" height="18" fill="#172033"/>
  <rect x="230" y="122" width="18" height="18" fill="#172033"/>

  <rect x="122" y="154" width="42" height="18" fill="#172033"/>
  <rect x="176" y="154" width="18" height="18" fill="#B8692F"/>
  <rect x="206" y="154" width="60" height="18" fill="#172033"/>

  <rect x="122" y="194" width="18" height="18" fill="#B8692F"/>
  <rect x="152" y="194" width="48" height="18" fill="#172033"/>
  <rect x="218" y="194" width="18" height="18" fill="#172033"/>

  <rect x="122" y="230" width="54" height="18" fill="#172033"/>
  <rect x="194" y="230" width="18" height="18" fill="#B8692F"/>
  <rect x="230" y="230" width="36" height="18" fill="#172033"/>
</svg>
